# xmcd
#
# Track frame offsets:
#	150
#	65843
#	107845
#	149979
#	209696
#	264641
#
# Disc length: 4409 seconds
#
# Revision: 1
# Processed by: cddbd v1.4b42PL1 Copyright (c) Steve Scherf et al.
# Submitted via: audiograbber 1.80
#
DISCID=6c113706
DTITLE=Krishna Rasamrita - Radha Godinpath Mandir (Live)
DYEAR=1900
DGENRE=
TTITLE0=Sri Vraja-dhama-mahimamrita
TTITLE1=Radhe Radhe Govinda
TTITLE2=Hare Krishna Mahamantra
TTITLE3=Vande Krishna Nandakumar
TTITLE4=Jaya Radha -Krishna Giti
TTITLE5=Hare Krishna Mahamantra
EXTD=
EXTT0=
EXTT1=
EXTT2=
EXTT3=
EXTT4=
EXTT5=
PLAYORDER=
